# AST/ASF file generated using VICON BodyLanguage
# -----------------------------------------------
:version 1.10
:name VICON
:units
  mass 1.0
  length 0.45
  angle deg
:documentation
   .ast/.asf automatically generated from VICON data using
   VICON BodyBuilder and BodyLanguage model FoxedUp or BRILLIANT.MOD
:root
   order TX TY TZ RX RY RZ
   axis XYZ
   position 0 0 0  
   orientation 0 0 0 
:bonedata
  begin
     id 1 
     name lhipjoint
     direction 0.560651 -0.75055 0.34978 
     length 2.44936 
     axis 0 0 0  XYZ
  end
  begin
     id 2 
     name lfemur
     direction 0.34202 -0.939693 0  
     length 7.42139  
     axis 0 0 20  XYZ
    dof rx ry rz
    limits (-160.0 20.0)
           (-70.0 70.0)
           (-60.0 70.0)
  end
  begin
     id 3 
     name ltibia
     direction 0.34202 -0.939693 0   
     length 7.75674   
     axis 0 0 20   XYZ
    dof rx
    limits (-10.0 170.0)
  end
  begin
     id 4 
     name lfoot
     direction 0.0925879 -0.254383 0.962661   
     length 2.38688   
     axis -90 7.62852e-016 20   XYZ
    dof rx rz
    limits (-45.0 90.0)
           (-70.0 20.0)
  end
  begin
     id 5 
     name ltoes
     direction 1.53567e-011 -4.21973e-011 1   
     length 1.19228   
     axis -90 7.62852e-016 20   XYZ
    dof rx
    limits (-90.0 20.0)
  end
  begin
     id 6 
     name rhipjoint
     direction -0.540087 -0.762838 0.355506   
     length 2.4099  
     axis 0 0 0  XYZ 
  end
  begin
     id 7 
     name rfemur
     direction -0.34202 -0.939693 0   
     length 7.70794   
     axis 0 0 -20   XYZ
    dof rx ry rz
    limits (-160.0 20.0)
           (-70.0 70.0)
           (-70.0 60.0)
  end
  begin
     id 8 
     name rtibia
     direction -0.34202 -0.939693 0   
     length 7.66106   
     axis 0 0 -20   XYZ
    dof rx
    limits (-10.0 170.0)
 end
 begin
     id 9 
     name rfoot
     direction -0.0830975 -0.228308 0.970036   
     length 2.4989  
     axis -90 -7.62852e-016 -20   XYZ
    dof rx rz
    limits (-45.0 90.0)
           (-20.0 70.0)
  end
  begin
     id 10 
     name rtoes
     direction -1.53517e-011 -4.21842e-011 1   
     length 1.2498   
     axis -90 -7.62852e-016 -20   XYZ
    dof rx
    limits (-90.0 20.0)
  end
  begin
     id 11 
     name lowerback
     direction 0.0266356 0.99402 -0.105896   
     length 2.1545   
     axis 0 0 0   XYZ
    dof rx ry rz
    limits (-20.0 45.0)
           (-30.0 30.0)
           (-30.0 30.0)
  end
  begin
     id 12 
     name upperback
     direction 0.0130547 0.999192 0.0380027   
     length 2.1434   
     axis 0 0 0   XYZ
    dof rx ry rz
    limits (-20.0 45.0)
           (-30.0 30.0)
           (-30.0 30.0)
  end
  begin
     id 13 
     name thorax
     direction 0.000590299 0.996288 0.0860764   
     length 2.19049   
     axis 0 0 0   XYZ
    dof rx ry rz
    limits (-20.0 45.0)
           (-30.0 30.0)
           (-30.0 30.0)
  end
  begin
     id 14 
     name lowerneck
     direction -0.0432125 0.978219 0.203028   
     length 1.62441   
     axis 0 0 0   XYZ
    dof rx ry rz
    limits (-20.0 45.0)
           (-30.0 30.0)
           (-30.0 30.0)
  end
  begin
     id 15 
     name upperneck
     direction -0.0192309 0.991699 -0.127138   
     length 1.66666   
     axis 0 0 0   XYZ
    dof rx ry rz
    limits (-20.0 45.0)
           (-30.0 30.0)
           (-30.0 30.0)
  end
  begin
     id 16
     name head
     direction -0.00434499 0.997882 -0.0649107  
     length 1.67142  
     axis 0 0 0   XYZ
    dof rx ry rz
    limits (-20.0 45.0)
           (-30.0 30.0)
           (-30.0 30.0)
  end
  begin
     id 17 
     name lclavicle
     direction 0.970351 0.240904 -0.0196058  
     length 4.04862  
     axis 0 0 0   XYZ
    dof ry rz
    limits (-20.0 10.0)
           (0.0 20.0)
  end
  begin
     id 18 
     name lhumerus
     direction 1 -4.4896e-011 -1.40911e-018   
     length 5.58345   
     axis 180 -30 -90   XYZ
    dof rx ry rz
    limits (-60.0 90.0)
           (-90.0 90.0)
           (-90.0 90.0)
  end
  begin
     id 19
     name lradius
     direction 1 -4.48968e-011 5.88912e-028   
     length 3.71087   
     axis 180 -30 -90   XYZ
    dof rx
    limits (-10.0 170.0)
  end
  begin
     id 20
     name lwrist
     direction 1 -4.48955e-011 -8.83775e-028   
     length 1.85544   
     axis 5.52448e-016 90 90   XYZ
    dof ry
    limits (-180.0 0.0)
 end
  begin
     id 21 
     name lhand
     direction 1 -4.49035e-011 -1.76755e-027   
     length 0.562322   
     axis 1.12785e-015 90 90   XYZ
    dof rx rz
    limits (-90.0 90.0)
           (-45.0 45.0)
  end
  begin
     id 22 
     name lfingers
     direction 1 -4.48824e-011 -3.5351e-027   
     length 0.453359   
     axis 2.2557e-015 90 90   XYZ
    dof rx
    limits (0.0 90.0)
  end
  begin
     id 23
     name lthumb
     direction 0.707107 -6.34888e-011 0.707107   
     length 0.650935   
     axis -90 45 2.85299e-015   XYZ
    dof rx rz
    limits (-45.0 45.0)
           (-45.0 45.0)
  end
  begin
     id 24 
     name rclavicle
     direction -0.96165 0.268562 -0.0557131   
     length 4.05446  
     axis 0 0 0   XYZ 
    dof ry rz
    limits (-10.0 20.0)
           (-20.0 0.0)
  end
  begin
     id 25 
     name rhumerus
     direction -1 -4.48957e-011 -3.36329e-027  
     length 5.20357   
     axis 180 30 90   XYZ
    dof rx ry rz
    limits (-90.0 60.0)
           (-90.0 90.0)
           (-90.0 90.0)
  end
  begin
     id 26 
     name rradius
     direction -1 -4.48974e-011 4.51441e-027   
     length 3.64937   
     axis 180 30 90   XYZ
    dof rx
    limits (-10.0 170.0)
  end
  begin
     id 27 
     name rwrist
     direction -1 -4.4896e-011 -8.83775e-028   
     length 1.82468   
     axis 5.52448e-016 -90 -90   XYZ
    dof ry
    limits (-180.0 0.0)
  end
  begin
     id 28
     name rhand
     direction -1 -4.48996e-011 -1.76755e-027   
     length 0.617996   
     axis 1.12785e-015 -90 -90   XYZ
    dof rx rz
    limits (-90.0 90.0)
           (-45.0 45.0)
  end
  begin
     id 29
     name rfingers
     direction -1 -4.48957e-011 -3.5351e-027   
     length 0.498244   
     axis 2.2557e-015 -90 -90   XYZ
    dof rx
    limits (0.0 90.0)
  end
  begin
     id 30
     name rthumb
     direction -0.707107 -6.34931e-011 0.707107   
     length 0.715382   
     axis -90 -45 -2.85299e-015   XYZ
    dof rx rz
    limits (-45.0 45.0)
           (-45.0 45.0)
  end
:hierarchy
  begin
    root lhipjoint rhipjoint lowerback
    lhipjoint lfemur
    lfemur ltibia
    ltibia lfoot
    lfoot ltoes
    rhipjoint rfemur
    rfemur rtibia
    rtibia rfoot
    rfoot rtoes
    lowerback upperback
    upperback thorax
    thorax lowerneck lclavicle rclavicle
    lowerneck upperneck
    upperneck head
    lclavicle lhumerus
    lhumerus lradius
    lradius lwrist
    lwrist lhand lthumb
    lhand lfingers
    rclavicle rhumerus
    rhumerus rradius
    rradius rwrist
    rwrist rhand rthumb
    rhand rfingers
  end

#!OML:ASF H:\ManfredETheater\Project 1\Capture day 2\Session 1\Male1.ASF
:FULLY-SPECIFIED
:DEGREES
212
root 3.37145 16.1666 1.71179 -8.75049 -2.02569 -3.60166
lowerback 8.35351 0.181375 2.33633
upperback 0.50388 0.592631 3.01341
thorax -4.17416 0.276577 1.74447
lowerneck -26.1003 -0.606346 -1.22414
upperneck 22.3555 0.58212 -3.31948
head 11.6407 -0.306971 -0.938689
rclavicle 9.93923e-017 9.93923e-015
rhumerus 34.3942 -0.742543 -51.1563
rradius 55.4577
rwrist 20.2116
rhand 10.7532 -18.6298
rfingers 7.12502
rthumb 35.8403 -44.9853
lclavicle 9.93923e-017 9.93923e-015
lhumerus 26.1252 3.47496 64.3355
lradius 71.097
lwrist -19.6496
lhand 17.9259 13.8673
lfingers 7.12502
lthumb 42.5982 38.2537
rfemur -12.3596 -11.1779 14.4946
rtibia 61.4799
rfoot -32.1489 -3.4095
rtoes -12.0106
lfemur -12.3372 8.36536 -5.97579
ltibia 60.066
lfoot -32.2502 -4.53873
ltoes -12.3503
213
root 3.3714 16.1671 1.71284 -8.72636 -2.02754 -3.61066
lowerback 8.34924 0.18992 2.34248
upperback 0.492835 0.605002 3.01675
thorax -4.18342 0.282571 1.74308
lowerneck -26.0776 -0.612768 -1.25609
upperneck 22.3241 0.572064 -3.27676
head 11.624 -0.307797 -0.918661
rclavicle 2.93207e-015 3.4191e-014
rhumerus 34.3997 -0.76157 -51.1415
rradius 55.4602
rwrist 20.2134
rhand 10.7183 -18.5976
rfingers 7.12502
rthumb 35.8073 -44.9612
lclavicle 2.93207e-015 3.4191e-014
lhumerus 26.1324 3.45152 64.3388
lradius 71.0906
lwrist -19.6205
lhand 17.8954 13.9046
lfingers 7.12502
lthumb 42.5697 38.3009
rfemur -12.3877 -11.1754 14.5135
rtibia 61.4847
rfoot -32.1344 -3.4228
rtoes -12.0006
lfemur -12.3629 8.37791 -5.96404
ltibia 60.0772
lfoot -32.2577 -4.56522
ltoes -12.2713
214
root 3.37223 16.1664 1.71427 -8.71342 -2.01968 -3.59844
lowerback 8.3427 0.189573 2.3323
upperback 0.494594 0.603174 3.01567
thorax -4.17798 0.281877 1.74788
lowerneck -26.086 -0.607998 -1.23293
upperneck 22.3131 0.577966 -3.30709
head 11.6216 -0.307173 -0.932727
rclavicle -4.27387e-015 1.86858e-014
rhumerus 34.4275 -0.773921 -51.1387
rradius 55.4615
rwrist 20.2201
rhand 10.7734 -18.5769
rfingers 7.12502
rthumb 35.8595 -44.9278
lclavicle -4.27387e-015 1.86858e-014
lhumerus 26.1521 3.4693 64.3456
lradius 71.0789
lwrist -19.6435
lhand 17.9238 13.8845
lfingers 7.12502
lthumb 42.5963 38.2716
rfemur -12.4012 -11.1841 14.4925
rtibia 61.4924
rfoot -32.1407 -3.41689
rtoes -12.0029
lfemur -12.3804 8.37121 -5.98803
ltibia 60.0892
lfoot -32.2631 -4.54905
ltoes -12.3069
215
root 3.37202 16.1661 1.71531 -8.70089 -2.01029 -3.63046
lowerback 8.33654 0.186787 2.35679
upperback 0.495186 0.602002 3.0278
thorax -4.1738 0.280967 1.74689
lowerneck -26.0867 -0.604818 -1.21932
upperneck 22.3016 0.58297 -3.32948
head 11.6176 -0.306636 -0.942344
rclavicle -4.91992e-015 -1.27222e-014
rhumerus 34.4561 -0.778583 -51.1207
rradius 55.448
rwrist 20.2052
rhand 10.7356 -18.6197
rfingers 7.12502
rthumb 35.8237 -44.9793
lclavicle -4.91992e-015 -1.27222e-014
lhumerus 26.1606 3.46808 64.3515
lradius 71.0869
lwrist -19.6191
lhand 17.9805 13.9071
lfingers 7.12502
lthumb 42.6494 38.2758
rfemur -12.4071 -11.1933 14.5317
rtibia 61.4977
rfoot -32.1474 -3.4301
rtoes -12.05
lfemur -12.4024 8.36208 -5.95275
ltibia 60.1023
lfoot -32.2636 -4.56993
ltoes -12.227
216
root 3.37208 16.1661 1.71724 -8.68921 -1.99424 -3.63871
lowerback 8.32607 0.178365 2.35751
upperback 0.493422 0.590573 3.03038
thorax -4.16964 0.275332 1.75052
lowerneck -26.0884 -0.597567 -1.20632
upperneck 22.3049 0.590021 -3.33621
head 11.6193 -0.303301 -0.94583
rclavicle -2.5345e-015 -2.54444e-014
rhumerus 34.4769 -0.776716 -51.125
rradius 55.4539
rwrist 20.1701
rhand 10.7244 -18.6282
rfingers 7.12502
rthumb 35.8131 -44.9904
lclavicle -2.5345e-015 -2.54444e-014
lhumerus 26.1645 3.48443 64.3443
lradius 71.0868
lwrist -19.6106
lhand 18.0026 13.9139
lfingers 7.12502
lthumb 42.6701 38.2754
rfemur -12.4118 -11.2164 14.5335
rtibia 61.5049
rfoot -32.1537 -3.42488
rtoes -12.0396
lfemur -12.4188 8.35611 -5.9473
ltibia 60.1152
lfoot -32.2697 -4.57515
ltoes -12.2175
217
root 3.37201 16.1657 1.71812 -8.66411 -2.00065 -3.65035
lowerback 8.31884 0.184697 2.36364
upperback 0.479699 0.600001 3.03447
thorax -4.18 0.279863 1.75029
lowerneck -26.071 -0.594087 -1.20663
upperneck 22.3022 0.591138 -3.32444
head 11.6149 -0.301014 -0.941022
rclavicle 8.34896e-015 -4.65156e-014
rhumerus 34.4722 -0.780017 -51.1142
rradius 55.4679
rwrist 20.1198
rhand 10.7761 -18.6574
rfingers 7.12502
rthumb 35.8621 -45.0076
lclavicle 8.34896e-015 -4.65156e-014
lhumerus 26.1659 3.48269 64.3478
lradius 71.0928
lwrist -19.6177
lhand 18.0088 13.899
lfingers 7.12502
lthumb 42.6758 38.2585
rfemur -12.444 -11.2112 14.5549
rtibia 61.511
rfoot -32.1459 -3.43409
rtoes -12.0489
lfemur -12.4468 8.37388 -5.93302
ltibia 60.1268
lfoot -32.267 -4.60146
ltoes -12.1602
218
root 3.37241 16.1646 1.71984 -8.65856 -1.97798 -3.64372
lowerback 8.32063 0.179012 2.35851
upperback 0.488016 0.59159 3.03209
thorax -4.17224 0.275819 1.75165
lowerneck -26.1065 -0.595544 -1.2087
upperneck 22.3038 0.589892 -3.32072
head 11.6221 -0.301563 -0.939786
rclavicle -3.32964e-015 -2.8625e-014
rhumerus 34.5091 -0.797023 -51.1122
rradius 55.472
rwrist 20.0932
rhand 10.7682 -18.6582
rfingers 7.12502
rthumb 35.8546 -45.0103
lclavicle -3.32964e-015 -2.8625e-014
lhumerus 26.1837 3.48897 64.346
lradius 71.1
lwrist -19.5992
lhand 17.9763 13.9202
lfingers 7.12502
lthumb 42.6455 38.2903
rfemur -12.4445 -11.2415 14.5385
rtibia 61.5206
rfoot -32.152 -3.44163
rtoes -12.1539
lfemur -12.4616 8.35362 -5.94706
ltibia 60.1404
lfoot -32.2654 -4.602
ltoes -12.2
219
root 3.37309 16.1656 1.7217 -8.64983 -1.97168 -3.63755
lowerback 8.3163 0.178885 2.34688
upperback 0.490874 0.590211 3.03643
thorax -4.16698 0.275423 1.76285
lowerneck -26.1273 -0.588239 -1.18787
upperneck 22.3108 0.59947 -3.34485
head 11.6289 -0.299005 -0.950816
rclavicle -4.87022e-015 3.4191e-014
rhumerus 34.5317 -0.799719 -51.1018
rradius 55.4766
rwrist 20.0719
rhand 10.7637 -18.6411
rfingers 7.12502
rthumb 35.8503 -44.9942
lclavicle -4.87022e-015 3.4191e-014
lhumerus 26.1963 3.50238 64.3484
lradius 71.0917
lwrist -19.6322
lhand 17.9919 13.923
lfingers 7.12502
lthumb 42.66 38.2879
rfemur -12.4458 -11.2589 14.5224
rtibia 61.5225
rfoot -32.1554 -3.40874
rtoes -12.0708
lfemur -12.4708 8.35756 -5.95904
ltibia 60.1502
lfoot -32.2382 -4.48214
ltoes -12.7634
220
root 3.37356 16.1647 1.72329 -8.62865 -1.96486 -3.6485
lowerback 8.28982 0.179644 2.35359
upperback 0.502246 0.590442 3.04194
thorax -4.1403 0.275604 1.76473
lowerneck -26.1691 -0.588807 -1.18784
upperneck 22.3041 0.596292 -3.33333
head 11.634 -0.299087 -0.947285
rclavicle 2.43511e-015 -1.78906e-014
rhumerus 34.5773 -0.830417 -51.1008
rradius 55.4644
rwrist 20.0711
rhand 10.7427 -18.5891
rfingers 7.12502
rthumb 35.8305 -44.9471
lclavicle 2.43511e-015 -1.78906e-014
lhumerus 26.2348 3.52401 64.3648
lradius 71.0956
lwrist -19.6323
lhand 18.027 13.9355
lfingers 7.12502
lthumb 42.6929 38.2891
rfemur -12.4669 -11.2758 14.5284
rtibia 61.5303
rfoot -32.1655 -3.39264
rtoes -12.0276
lfemur -12.4988 8.35562 -5.9509
ltibia 60.1708
lfoot -32.2348 -4.50558
ltoes -12.7407
221
root 3.3736 16.1643 1.72421 -8.60601 -1.9526 -3.68404
lowerback 8.28862 0.179139 2.38346
upperback 0.50019 0.593123 3.05405
thorax -4.14167 0.276479 1.76025
lowerneck -26.2029 -0.596985 -1.17551
upperneck 22.3068 0.585301 -3.34898
head 11.6412 -0.305399 -0.957354
rclavicle -8.64713e-015 -1.90833e-014
rhumerus 34.5947 -0.850279 -51.082
rradius 55.4795
rwrist 20.087
rhand 10.7157 -18.5897
rfingers 7.12502
rthumb 35.8049 -44.9539
lclavicle -8.64713e-015 -1.90833e-014
lhumerus 26.2604 3.52715 64.3724
lradius 71.0892
lwrist -19.6784
lhand 18.0576 13.8811
lfingers 7.12502
lthumb 42.7215 38.2248
rfemur -12.4835 -11.2922 14.5727
rtibia 61.5312
rfoot -32.1595 -3.40654
rtoes -12.0586
lfemur -12.5356 8.36173 -5.90898
ltibia 60.1888
lfoot -32.2354 -4.51839
ltoes -12.7707
222
root 3.37374 16.1634 1.7258 -8.59368 -1.94602 -3.70173
lowerback 8.27484 0.179396 2.40088
upperback 0.513889 0.594103 3.05868
thorax -4.11957 0.27681 1.75509
lowerneck -26.2464 -0.603401 -1.19667
upperneck 22.3068 0.574414 -3.30831
head 11.6488 -0.306911 -0.94086
rclavicle 2.78299e-015 -1.27222e-014
rhumerus 34.6326 -0.885323 -51.0866
rradius 55.4836
rwrist 20.132
rhand 10.7542 -18.5637
rfingers 7.12502
rthumb 35.8414 -44.919
lclavicle 2.78299e-015 -1.27222e-014
lhumerus 26.2996 3.54314 64.3637
lradius 71.0985
lwrist -19.6544
lhand 18.0364 13.9444
lfingers 7.12502
lthumb 42.7016 38.2949
rfemur -12.4915 -11.3112 14.5858
rtibia 61.5367
rfoot -32.1676 -3.3956
rtoes -12.0713
lfemur -12.5578 8.35985 -5.89018
ltibia 60.2096
lfoot -32.2341 -4.54268
ltoes -12.7153
223
root 3.37421 16.1633 1.72757 -8.57982 -1.93503 -3.69961
lowerback 8.26506 0.179472 2.39658
upperback 0.518041 0.593368 3.06274
thorax -4.10984 0.276618 1.7618
lowerneck -26.2659 -0.611796 -1.21575
upperneck 22.3065 0.566002 -3.29138
head 11.652 -0.310201 -0.932985
rclavicle 4.12478e-015 -2.74323e-014
rhumerus 34.6696 -0.906811 -51.0922
rradius 55.4764
rwrist 20.1805
rhand 10.7391 -18.5777
rfingers 7.12502
rthumb 35.827 -44.9365
lclavicle 4.12478e-015 -2.74323e-014
lhumerus 26.321 3.56038 64.3806
lradius 71.1016
lwrist -19.6504
lhand 18.0447 13.9478
lfingers 7.12502
lthumb 42.7094 38.2957
rfemur -12.498 -11.3378 14.5778
rtibia 61.5382
rfoot -32.1753 -3.41567
rtoes -12.1423
lfemur -12.5736 8.36477 -5.89321
ltibia 60.2252
lfoot -32.2472 -4.5676
ltoes -12.693
224
root 3.3747 16.1631 1.7295 -8.56024 -1.93636 -3.7143
lowerback 8.24386 0.17725 2.41735
upperback 0.530192 0.590992 3.06572
thorax -4.08511 0.275222 1.75344
lowerneck -26.3306 -0.619207 -1.23659
upperneck 22.3172 0.554879 -3.2519
head 11.6676 -0.312272 -0.917303
rclavicle 5.2181e-015 3.29983e-014
rhumerus 34.7042 -0.931639 -51.1013
rradius 55.4904
rwrist 20.2105
rhand 10.7541 -18.5972
rfingers 7.12502
rthumb 35.8413 -44.9525
lclavicle 5.2181e-015 3.29983e-014
lhumerus 26.3574 3.59075 64.3741
lradius 71.1083
lwrist -19.6345
lhand 18.0452 13.9984
lfingers 7.12502
lthumb 42.7099 38.346
rfemur -12.5125 -11.3412 14.5917
rtibia 61.5418
rfoot -32.1872 -3.39405
rtoes -12.1153
lfemur -12.5957 8.37846 -5.87716
ltibia 60.2414
lfoot -32.2553 -4.58012
ltoes -12.6811
225
root 3.37462 16.1625 1.73035 -8.54774 -1.93493 -3.73071
lowerback 8.24752 0.177481 2.43034
upperback 0.532403 0.592678 3.06801
thorax -4.08479 0.275845 1.74831
lowerneck -26.3537 -0.62259 -1.21028
upperneck 22.3184 0.54462 -3.26755
head 11.6723 -0.316892 -0.929458
rclavicle 7.8023e-015 5.56597e-015
rhumerus 34.7289 -0.951086 -51.1082
rradius 55.484
rwrist 20.2203
rhand 10.711 -18.5873
rfingers 7.12502
rthumb 35.8004 -44.9526
lclavicle 7.8023e-015 5.56597e-015
lhumerus 26.3729 3.60677 64.3637
lradius 71.1217
lwrist -19.633
lhand 18.0465 13.996
lfingers 7.12502
lthumb 42.7111 38.3432
rfemur -12.5259 -11.3564 14.6084
rtibia 61.5446
rfoot -32.1874 -3.39067
rtoes -12.1202
lfemur -12.6154 8.39123 -5.85531
ltibia 60.2531
lfoot -32.2472 -4.58506
ltoes -12.7581
